{
  "accessors": [
    {
      "bufferView": 2,
      "componentType": 5126,
      "count": 8275,
      "max": [
        1.5433893203735352,
        2.4700303077697754,
        2.9013855457305908
      ],
      "min": [
        -1.6398799419403076,
        0.45245465636253357,
        -2.8681716918945312
      ],
      "type": "VEC3"
    },
    {
      "bufferView": 2,
      "byteOffset": 99300,
      "componentType": 5126,
      "count": 8275,
      "max": [
        0.99984711408615112,
        0.99999988079071045,
        0.99995708465576172
      ],
      "min": [
        -0.9998515248298645,
        -0.99996954202651978,
        -0.99999719858169556
      ],
      "type": "VEC3"
    },
    {
      "bufferView": 1,
      "componentType": 5126,
      "count": 8275,
      "max": [
        0.99340415000915527,
        0.96382564306259155
      ],
      "min": [
        5.6360055168624967e-05,
        -0.0030963870231062174
      ],
      "type": "VEC2"
    },
    {
      "bufferView": 0,
      "componentType": 5125,
      "count": 46200,
      "max": [
        8274
      ],
      "min": [
        0
      ],
      "type": "SCALAR"
    }
  ],
  "asset": {
    "extras": {
      "author": "velsakthi562 (https://sketchfab.com/velsakthi562)",
      "license": "CC-BY-4.0 (http://creativecommons.org/licenses/by/4.0/)",
      "source": "https://sketchfab.com/3d-models/white-shark-88cd378b8f904290a677d9be62af0124",
      "title": "White Shark"
    },
    "generator": "Sketchfab-9.39.0",
    "version": "2.0"
  },
  "bufferViews": [
    {
      "buffer": 0,
      "byteLength": 184800,
      "byteOffset": 0,
      "name": "floatBufferViews",
      "target": 34963
    },
    {
      "buffer": 0,
      "byteLength": 66200,
      "byteOffset": 184800,
      "byteStride": 8,
      "name": "floatBufferViews",
      "target": 34962
    },
    {
      "buffer": 0,
      "byteLength": 198600,
      "byteOffset": 251000,
      "byteStride": 12,
      "name": "floatBufferViews",
      "target": 34962
    }
  ],
  "buffers": [
    {
      "byteLength": 449600,
      "uri": "scene.bin"
    }
  ],
  "images": [
    {
      "uri": "textures/sHark_baseColor.jpeg"
    }
  ],
  "materials": [
    {
      "doubleSided": true,
      "name": "sHark",
      "pbrMetallicRoughness": {
        "baseColorFactor": [
          0.31787905319543502,
          0.31787905319543502,
          0.31787905319543502,
          1
        ],
        "baseColorTexture": {
          "index": 0,
          "texCoord": 0
        },
        "metallicFactor": 0,
        "roughnessFactor": 0.59999999999999998
      }
    }
  ],
  "meshes": [
    {
      "name": "Shark_sHark_0",
      "primitives": [
        {
          "attributes": {
            "NORMAL": 1,
            "POSITION": 0,
            "TEXCOORD_0": 2
          },
          "indices": 3,
          "material": 0,
          "mode": 4
        }
      ]
    }
  ],
  "nodes": [
    {
      "children": [
        1
      ],
      "name": "RootNode (gltf orientation matrix)",
      "rotation": [
        -0.70710678118654746,
        -0,
        -0,
        0.70710678118654757
      ]
    },
    {
      "children": [
        2
      ],
      "name": "RootNode (model correction matrix)"
    },
    {
      "children": [
        3
      ],
      "matrix": [
        1,
        0,
        0,
        0,
        0,
        0,
        1,
        0,
        0,
        -1,
        0,
        0,
        0,
        0,
        0,
        1
      ],
      "name": "072bd6564dc44f09bf3877254ad9e638.fbx"
    },
    {
      "children": [
        4
      ],
      "name": "RootNode"
    },
    {
      "children": [
        5
      ],
      "name": "Shark"
    },
    {
      "mesh": 0,
      "name": "Shark_sHark_0"
    }
  ],
  "samplers": [
    {
      "magFilter": 9729,
      "minFilter": 9987,
      "wrapS": 10497,
      "wrapT": 10497
    }
  ],
  "scene": 0,
  "scenes": [
    {
      "name": "OSG_Scene",
      "nodes": [
        0
      ]
    }
  ],
  "textures": [
    {
      "sampler": 0,
      "source": 0
    }
  ]
}

